<svg width="1153" height="477" viewBox="0 0 1153 477" fill="none" xmlns="http://www.w3.org/2000/svg">
<path d="M43.5 202H1.5L73 279.5L191.5 153.5H148.5L73 233.5L43.5 202Z" fill="#16B792"/>
<path d="M147.5 224L58 323.5H101L191 224H147.5Z" fill="#16B792"/>
<path d="M0 267V226.5L76.5 303L58 323.5L0 267Z" fill="#40758C"/>
<rect x="224.5" y="137" width="13" height="203" fill="#16B792"/>
<path d="M321.98 163.48C338.78 163.48 351.02 166.78 358.7 173.38C366.38 179.98 370.22 189.28 370.22 201.28C370.22 208.36 368.6 215.02 365.36 221.26C362.24 227.38 356.9 232.36 349.34 236.2C341.9 240.04 331.76 241.96 318.92 241.96H304.16V292H287.96V163.48H321.98ZM320.54 177.34H304.16V228.1H317.12C329.36 228.1 338.48 226.12 344.48 222.16C350.48 218.2 353.48 211.48 353.48 202C353.48 193.72 350.84 187.54 345.56 183.46C340.28 179.38 331.94 177.34 320.54 177.34ZM439.784 193.72C441.584 193.72 443.504 193.84 445.544 194.08C447.704 194.2 449.564 194.44 451.124 194.8L449.144 209.38C447.584 209.02 445.844 208.72 443.924 208.48C442.124 208.24 440.384 208.12 438.704 208.12C433.784 208.12 429.164 209.5 424.844 212.26C420.524 214.9 417.044 218.68 414.404 223.6C411.884 228.4 410.624 234.04 410.624 240.52V292H394.784V195.52H407.744L409.544 213.16H410.264C413.384 207.88 417.404 203.32 422.324 199.48C427.244 195.64 433.064 193.72 439.784 193.72ZM502.884 193.72C511.164 193.72 518.244 195.52 524.124 199.12C530.124 202.72 534.684 207.82 537.804 214.42C541.044 220.9 542.664 228.52 542.664 237.28V246.82H476.604C476.844 257.74 479.604 266.08 484.884 271.84C490.284 277.48 497.784 280.3 507.384 280.3C513.504 280.3 518.904 279.76 523.584 278.68C528.384 277.48 533.304 275.8 538.344 273.64V287.5C533.424 289.66 528.564 291.22 523.764 292.18C518.964 293.26 513.264 293.8 506.664 293.8C497.544 293.8 489.444 291.94 482.364 288.22C475.404 284.5 469.944 278.98 465.984 271.66C462.144 264.22 460.224 255.16 460.224 244.48C460.224 233.92 461.964 224.86 465.444 217.3C469.044 209.74 474.024 203.92 480.384 199.84C486.864 195.76 494.364 193.72 502.884 193.72ZM502.704 206.68C495.144 206.68 489.144 209.14 484.704 214.06C480.384 218.86 477.804 225.58 476.964 234.22H526.104C525.984 226.06 524.064 219.46 520.344 214.42C516.624 209.26 510.744 206.68 502.704 206.68ZM605.926 293.8C597.406 293.8 589.786 292.06 583.066 288.58C576.466 285.1 571.246 279.7 567.406 272.38C563.686 265.06 561.826 255.7 561.826 244.3C561.826 232.42 563.806 222.76 567.766 215.32C571.726 207.88 577.066 202.42 583.786 198.94C590.626 195.46 598.366 193.72 607.006 193.72C611.926 193.72 616.666 194.26 621.226 195.34C625.786 196.3 629.506 197.5 632.386 198.94L627.526 212.08C624.646 211 621.286 209.98 617.446 209.02C613.606 208.06 610.006 207.58 606.646 207.58C587.686 207.58 578.206 219.76 578.206 244.12C578.206 255.76 580.486 264.7 585.046 270.94C589.726 277.06 596.626 280.12 605.746 280.12C611.026 280.12 615.646 279.58 619.606 278.5C623.686 277.42 627.406 276.1 630.766 274.54V288.58C627.526 290.26 623.926 291.52 619.966 292.36C616.126 293.32 611.446 293.8 605.926 293.8ZM690.97 193.72C699.25 193.72 706.33 195.52 712.21 199.12C718.21 202.72 722.77 207.82 725.89 214.42C729.13 220.9 730.75 228.52 730.75 237.28V246.82H664.69C664.93 257.74 667.69 266.08 672.97 271.84C678.37 277.48 685.87 280.3 695.47 280.3C701.59 280.3 706.99 279.76 711.67 278.68C716.47 277.48 721.39 275.8 726.43 273.64V287.5C721.51 289.66 716.65 291.22 711.85 292.18C707.05 293.26 701.35 293.8 694.75 293.8C685.63 293.8 677.53 291.94 670.45 288.22C663.49 284.5 658.03 278.98 654.07 271.66C650.23 264.22 648.31 255.16 648.31 244.48C648.31 233.92 650.05 224.86 653.53 217.3C657.13 209.74 662.11 203.92 668.47 199.84C674.95 195.76 682.45 193.72 690.97 193.72ZM690.79 206.68C683.23 206.68 677.23 209.14 672.79 214.06C668.47 218.86 665.89 225.58 665.05 234.22H714.19C714.07 226.06 712.15 219.46 708.43 214.42C704.71 209.26 698.83 206.68 690.79 206.68ZM787.532 280.84C789.932 280.84 792.392 280.66 794.912 280.3C797.432 279.82 799.472 279.34 801.032 278.86V290.92C799.352 291.76 796.952 292.42 793.832 292.9C790.712 293.5 787.712 293.8 784.832 293.8C779.792 293.8 775.112 292.96 770.792 291.28C766.592 289.48 763.172 286.42 760.532 282.1C757.892 277.78 756.572 271.72 756.572 263.92V207.76H742.892V200.2L756.752 193.9L763.052 173.38H772.412V195.52H800.312V207.76H772.412V263.56C772.412 269.44 773.792 273.82 776.552 276.7C779.432 279.46 783.092 280.84 787.532 280.84ZM852.571 280.84C854.971 280.84 857.431 280.66 859.951 280.3C862.471 279.82 864.511 279.34 866.071 278.86V290.92C864.391 291.76 861.991 292.42 858.871 292.9C855.751 293.5 852.751 293.8 849.871 293.8C844.831 293.8 840.151 292.96 835.831 291.28C831.631 289.48 828.211 286.42 825.571 282.1C822.931 277.78 821.611 271.72 821.611 263.92V207.76H807.931V200.2L821.791 193.9L828.091 173.38H837.451V195.52H865.351V207.76H837.451V263.56C837.451 269.44 838.831 273.82 841.591 276.7C844.471 279.46 848.131 280.84 852.571 280.84ZM969.27 243.58C969.27 259.54 965.19 271.9 957.03 280.66C948.99 289.42 938.07 293.8 924.27 293.8C915.75 293.8 908.13 291.88 901.41 288.04C894.81 284.08 889.59 278.38 885.75 270.94C881.91 263.38 879.99 254.26 879.99 243.58C879.99 227.62 884.01 215.32 892.05 206.68C900.09 198.04 911.01 193.72 924.81 193.72C933.57 193.72 941.25 195.7 947.85 199.66C954.57 203.5 959.79 209.14 963.51 216.58C967.35 223.9 969.27 232.9 969.27 243.58ZM896.37 243.58C896.37 254.98 898.59 264.04 903.03 270.76C907.59 277.36 914.79 280.66 924.63 280.66C934.35 280.66 941.49 277.36 946.05 270.76C950.61 264.04 952.89 254.98 952.89 243.58C952.89 232.18 950.61 223.24 946.05 216.76C941.49 210.28 934.29 207.04 924.45 207.04C914.61 207.04 907.47 210.28 903.03 216.76C898.59 223.24 896.37 232.18 896.37 243.58ZM1039.37 193.72C1041.17 193.72 1043.09 193.84 1045.13 194.08C1047.29 194.2 1049.15 194.44 1050.71 194.8L1048.73 209.38C1047.17 209.02 1045.43 208.72 1043.51 208.48C1041.71 208.24 1039.97 208.12 1038.29 208.12C1033.37 208.12 1028.75 209.5 1024.43 212.26C1020.11 214.9 1016.63 218.68 1013.99 223.6C1011.47 228.4 1010.21 234.04 1010.21 240.52V292H994.374V195.52H1007.33L1009.13 213.16H1009.85C1012.97 207.88 1016.99 203.32 1021.91 199.48C1026.83 195.64 1032.65 193.72 1039.37 193.72ZM1102.47 193.72C1110.75 193.72 1117.83 195.52 1123.71 199.12C1129.71 202.72 1134.27 207.82 1137.39 214.42C1140.63 220.9 1142.25 228.52 1142.25 237.28V246.82H1076.19C1076.43 257.74 1079.19 266.08 1084.47 271.84C1089.87 277.48 1097.37 280.3 1106.97 280.3C1113.09 280.3 1118.49 279.76 1123.17 278.68C1127.97 277.48 1132.89 275.8 1137.93 273.64V287.5C1133.01 289.66 1128.15 291.22 1123.35 292.18C1118.55 293.26 1112.85 293.8 1106.25 293.8C1097.13 293.8 1089.03 291.94 1081.95 288.22C1074.99 284.5 1069.53 278.98 1065.57 271.66C1061.73 264.22 1059.81 255.16 1059.81 244.48C1059.81 233.92 1061.55 224.86 1065.03 217.3C1068.63 209.74 1073.61 203.92 1079.97 199.84C1086.45 195.76 1093.95 193.72 1102.47 193.72ZM1102.29 206.68C1094.73 206.68 1088.73 209.14 1084.29 214.06C1079.97 218.86 1077.39 225.58 1076.55 234.22H1125.69C1125.57 226.06 1123.65 219.46 1119.93 214.42C1116.21 209.26 1110.33 206.68 1102.29 206.68Z" fill="white"/>
<path d="M923.1 388L916.22 370.32H893.58L886.78 388H879.5L901.82 330.64H908.3L930.54 388H923.1ZM907.66 346.64C907.5 346.213 907.233 345.44 906.86 344.32C906.487 343.2 906.113 342.053 905.74 340.88C905.42 339.653 905.153 338.72 904.94 338.08C904.567 339.733 904.14 341.36 903.66 342.96C903.18 344.507 902.78 345.733 902.46 346.64L895.98 363.92H914.06L907.66 346.64ZM957.794 344.32C963.074 344.32 967.314 346.16 970.514 349.84C973.767 353.52 975.394 359.067 975.394 366.48C975.394 373.787 973.767 379.333 970.514 383.12C967.314 386.907 963.047 388.8 957.714 388.8C954.407 388.8 951.66 388.187 949.474 386.96C947.34 385.68 945.66 384.213 944.434 382.56H943.954C944.06 383.467 944.167 384.613 944.274 386C944.38 387.387 944.434 388.587 944.434 389.6V407.2H937.394V345.12H943.154L944.114 350.96H944.434C945.714 349.093 947.394 347.52 949.474 346.24C951.554 344.96 954.327 344.32 957.794 344.32ZM956.514 350.24C952.14 350.24 949.047 351.467 947.234 353.92C945.474 356.373 944.54 360.107 944.434 365.12V366.48C944.434 371.76 945.287 375.84 946.994 378.72C948.754 381.547 951.98 382.96 956.674 382.96C959.287 382.96 961.42 382.24 963.074 380.8C964.78 379.36 966.034 377.413 966.834 374.96C967.687 372.453 968.114 369.6 968.114 366.4C968.114 361.493 967.154 357.573 965.234 354.64C963.367 351.707 960.46 350.24 956.514 350.24ZM1006.61 344.32C1007.41 344.32 1008.27 344.373 1009.17 344.48C1010.13 344.533 1010.96 344.64 1011.65 344.8L1010.77 351.28C1010.08 351.12 1009.31 350.987 1008.45 350.88C1007.65 350.773 1006.88 350.72 1006.13 350.72C1003.95 350.72 1001.89 351.333 999.973 352.56C998.053 353.733 996.506 355.413 995.333 357.6C994.213 359.733 993.653 362.24 993.653 365.12V388H986.613V345.12H992.373L993.173 352.96H993.493C994.879 350.613 996.666 348.587 998.853 346.88C1001.04 345.173 1003.63 344.32 1006.61 344.32ZM1055.38 366.48C1055.38 373.573 1053.56 379.067 1049.94 382.96C1046.36 386.853 1041.51 388.8 1035.38 388.8C1031.59 388.8 1028.2 387.947 1025.22 386.24C1022.28 384.48 1019.96 381.947 1018.26 378.64C1016.55 375.28 1015.7 371.227 1015.7 366.48C1015.7 359.387 1017.48 353.92 1021.06 350.08C1024.63 346.24 1029.48 344.32 1035.62 344.32C1039.51 344.32 1042.92 345.2 1045.86 346.96C1048.84 348.667 1051.16 351.173 1052.82 354.48C1054.52 357.733 1055.38 361.733 1055.38 366.48ZM1022.98 366.48C1022.98 371.547 1023.96 375.573 1025.94 378.56C1027.96 381.493 1031.16 382.96 1035.54 382.96C1039.86 382.96 1043.03 381.493 1045.06 378.56C1047.08 375.573 1048.1 371.547 1048.1 366.48C1048.1 361.413 1047.08 357.44 1045.06 354.56C1043.03 351.68 1039.83 350.24 1035.46 350.24C1031.08 350.24 1027.91 351.68 1025.94 354.56C1023.96 357.44 1022.98 361.413 1022.98 366.48ZM1074.41 388L1058.17 345.12H1065.69L1074.81 370.4C1075.24 371.573 1075.69 372.88 1076.17 374.32C1076.65 375.76 1077.08 377.147 1077.45 378.48C1077.83 379.76 1078.09 380.853 1078.25 381.76H1078.57C1078.79 380.853 1079.08 379.733 1079.45 378.4C1079.88 377.067 1080.33 375.68 1080.81 374.24C1081.35 372.8 1081.8 371.52 1082.17 370.4L1091.29 345.12H1098.81L1082.49 388H1074.41ZM1121.84 344.4C1127.06 344.4 1130.93 345.547 1133.44 347.84C1135.94 350.133 1137.2 353.787 1137.2 358.8V388H1132.08L1130.72 381.92H1130.4C1128.53 384.267 1126.56 386 1124.48 387.12C1122.45 388.24 1119.62 388.8 1116 388.8C1112.1 388.8 1108.88 387.787 1106.32 385.76C1103.76 383.68 1102.48 380.453 1102.48 376.08C1102.48 371.813 1104.16 368.533 1107.52 366.24C1110.88 363.893 1116.05 362.613 1123.04 362.4L1130.32 362.16V359.6C1130.32 356.027 1129.54 353.547 1128 352.16C1126.45 350.773 1124.26 350.08 1121.44 350.08C1119.2 350.08 1117.06 350.427 1115.04 351.12C1113.01 351.76 1111.12 352.507 1109.36 353.36L1107.2 348.08C1109.06 347.067 1111.28 346.213 1113.84 345.52C1116.4 344.773 1119.06 344.4 1121.84 344.4ZM1123.92 367.28C1118.58 367.493 1114.88 368.347 1112.8 369.84C1110.77 371.333 1109.76 373.44 1109.76 376.16C1109.76 378.56 1110.48 380.32 1111.92 381.44C1113.41 382.56 1115.3 383.12 1117.6 383.12C1121.22 383.12 1124.24 382.133 1126.64 380.16C1129.04 378.133 1130.24 375.04 1130.24 370.88V367.04L1123.92 367.28Z" fill="#30708C"/>
</svg>
